<svg width="228" height="46" viewBox="0 0 228 46" fill="none" xmlns="http://www.w3.org/2000/svg">
<path d="M106.624 15.9476H97.3086V25.2632H106.624V15.9476Z" fill="#00BAC7"/>
<path d="M24.1039 29.7477C24.1908 27.7055 23.4629 25.7125 22.0803 24.2071C20.6977 22.7017 18.7737 21.8072 16.7316 21.7203C16.5859 21.7141 16.4401 21.712 16.2943 21.7141C14.6943 21.6577 13.1135 22.0771 11.7518 22.9191C10.3901 23.7612 9.30863 24.9881 8.64424 26.4448C7.97985 27.9014 7.76233 29.5224 8.01918 31.1027C8.27603 32.683 8.99573 34.1516 10.0873 35.3228C11.1788 36.4941 12.5931 37.3154 14.1514 37.6828C15.7097 38.0503 17.3419 37.9474 18.8417 37.3872C20.3415 36.827 21.6415 35.8346 22.5774 34.5355C23.5132 33.2365 24.0427 31.6891 24.0991 30.0891C24.1031 29.9753 24.1047 29.8615 24.1039 29.7477ZM33.0928 29.804C33.0928 39.1312 26.4589 45.9856 17.7537 45.9856C15.9996 46.0241 14.2596 45.6649 12.6641 44.9351C11.0685 44.2053 9.65896 43.1237 8.54103 41.7714V45.1812H0V0H8.81799V17.4403C9.95273 16.2093 11.3355 15.2329 12.8752 14.5754C14.4149 13.9179 16.0765 13.5943 17.7504 13.6258C26.4589 13.6258 33.0894 20.5366 33.0894 29.8074" fill="#170F4F"/>
<path d="M60.6441 29.7212C60.5668 27.6744 59.6857 25.7407 58.192 24.3392C56.6983 22.9378 54.7124 22.1816 52.6648 22.2347C50.6173 22.2878 48.6732 23.1458 47.2541 24.6228C45.8351 26.0998 45.0554 28.0766 45.0842 30.1246C45.113 32.1726 45.948 34.1268 47.408 35.5633C48.868 36.9997 50.8355 37.8028 52.8837 37.7983C54.9319 37.7938 56.8958 36.982 58.3495 35.5391C59.8032 34.0962 60.6295 32.1385 60.6493 30.0903C60.6505 29.9673 60.6488 29.8442 60.6441 29.7212ZM36.245 29.7759C36.1666 26.4925 37.0636 23.2596 38.8226 20.4859C40.5816 17.7123 43.1236 15.5226 46.1271 14.1937C49.1306 12.8647 52.4608 12.4563 55.6964 13.02C58.932 13.5837 61.9279 15.0942 64.305 17.3605C66.6822 19.6268 68.3339 22.5472 69.0514 25.7522C69.7688 28.9573 69.5197 32.3031 68.3356 35.3666C67.1515 38.4301 65.0856 41.0737 62.399 42.963C59.7125 44.8524 56.526 45.9026 53.2426 45.981C53.0922 45.9846 52.9418 45.9861 52.7913 45.9856C48.5849 46.1648 44.4796 44.6656 41.3786 41.8179C38.2775 38.9702 36.4347 35.0073 36.2555 30.8009C36.241 30.4594 36.2375 30.1178 36.245 29.7759Z" fill="#170F4F"/>
<path d="M82.417 0H73.5957V45.1796H82.417V0Z" fill="#170F4F"/>
<path d="M97.3135 25.2634V32.7264C97.3135 36.2672 98.6619 37.9522 101.415 37.9522C103.201 37.8773 104.939 37.3556 106.472 36.4347L108.943 43.4566C106.078 45.1248 102.819 45.9979 99.5044 45.9857C92.3133 45.9857 88.4922 41.828 88.4922 33.5689L88.4375 25.2634H97.3135Z" fill="#170F4F"/>
<path d="M97.3116 0H88.4355V15.9477H97.3116V0Z" fill="#170F4F"/>
<path d="M134.477 43.4749C132.266 45.1885 129.526 46.0766 126.731 45.9858C120.893 45.9858 117.941 42.1713 117.941 35.783V18.8386H112.76V15.9446H117.996V5.61407H121.215V15.9446H133.217V18.8369H121.215V35.8908C121.215 40.6373 123.123 42.9823 126.998 42.9823C129.201 42.9999 131.348 42.2905 133.107 40.964L134.477 43.4749Z" fill="#170F4F"/>
<path d="M164.1 32.0181H139.555C140.052 38.511 144.247 42.9291 151.393 42.9291C155.237 42.9256 158.981 41.7028 162.087 39.4364L163.614 41.9456C160.057 44.5635 155.758 45.9782 151.342 45.9839C140.595 45.9839 136.175 38.292 136.175 30.6532C136.024 26.6356 137.452 22.7186 140.155 19.7423C141.495 18.3069 143.13 17.1785 144.947 16.4342C146.765 15.6899 148.721 15.3474 150.683 15.4303C152.477 15.3674 154.264 15.6735 155.935 16.3297C157.605 16.9858 159.124 17.978 160.395 19.2447C161.71 20.5857 162.733 22.1843 163.399 23.9399C164.066 25.6956 164.362 27.5702 164.269 29.4459C164.264 29.8356 164.209 30.7046 164.1 32.0181ZM139.555 29.018H160.886C160.831 22.5251 156.63 18.4337 150.683 18.4337C144.57 18.4321 140.205 22.6346 139.552 29.018H139.555Z" fill="#170F4F"/>
<path d="M173.318 41.7284C170.604 38.7072 169.107 34.7863 169.117 30.7249C169.127 26.6634 170.644 22.7501 173.373 19.7423C174.81 18.3129 176.524 17.1928 178.41 16.4512C180.296 15.7096 182.313 15.3622 184.339 15.4304C187 15.3347 189.634 15.9902 191.94 17.3217C194.246 18.6533 196.13 20.6072 197.378 22.9597L194.704 24.4872C193.689 22.6315 192.188 21.0873 190.362 20.0203C188.536 18.9532 186.454 18.4036 184.339 18.4305C182.746 18.3786 181.16 18.6628 179.684 19.2646C178.208 19.8664 176.875 20.7722 175.773 21.9232C173.613 24.3438 172.411 27.4691 172.39 30.7131C172.37 33.957 173.534 37.097 175.663 39.5443C176.734 40.673 178.031 41.5624 179.47 42.1541C180.908 42.7458 182.456 43.0263 184.01 42.9773C186.142 42.9781 188.236 42.4192 190.084 41.3566C191.932 40.2941 193.469 38.7649 194.54 36.9222L197.213 38.5591C196.006 40.85 194.145 42.7301 191.867 43.9607C189.471 45.314 186.761 46.0103 184.01 45.979C182.032 46.0442 180.061 45.7004 178.221 44.969C176.381 44.2376 174.712 43.1344 173.318 41.7284Z" fill="#170F4F"/>
<path d="M202.941 45.1814V3.99207H206.106V20.9083C207.052 19.0817 208.512 17.5716 210.305 16.5636C212.098 15.5556 214.147 15.0937 216.199 15.2347C217.718 15.1905 219.23 15.4528 220.645 16.0059C222.061 16.5589 223.35 17.3915 224.437 18.4538C225.595 19.6566 226.49 21.0883 227.063 22.6571C227.636 24.2259 227.875 25.8971 227.765 27.5636V45.1814H224.491V28.0993C224.491 21.9896 221.218 18.2796 215.816 18.2796C213.325 18.2505 210.919 19.1893 209.106 20.8983C208.092 21.9264 207.31 23.1591 206.812 24.514C206.313 25.8689 206.11 27.3146 206.215 28.7544V45.1731L202.941 45.1814Z" fill="#170F4F"/>
</svg>
