<svg width="24" height="24" viewBox="0 0 24 24" fill="none" xmlns="http://www.w3.org/2000/svg">
<path fill-rule="evenodd" clip-rule="evenodd" d="M17 3H3L3 20H7.53003L5.53003 22H3C1.89543 22 1 21.1046 1 20V3C1 1.89543 1.89543 1 3 1H17C18.1046 1 19 1.89543 19 3V8.53003L17 10.53V3ZM11.53 16L13.53 14H9V16H11.53ZM5 6H7V8H5V6ZM7 10H5V12H7V10ZM5 14H7V16H5V14ZM15 6H9V8H15V6ZM9 10H15V12H9V10ZM20.4778 13.5547L13.0603 20.9722L11.7225 21.3544L12.1047 20.0166L19.5222 12.5991C19.7861 12.3352 20.2139 12.3352 20.4778 12.5991C20.7417 12.863 20.7417 13.2908 20.4778 13.5547ZM21.5385 14.6154L13.8462 22.3077L9.53846 23.5385L10.7692 19.2308L18.4615 11.5385C19.3112 10.6888 20.6888 10.6888 21.5385 11.5385C22.3881 12.3881 22.3881 13.7657 21.5385 14.6154Z" fill="white"/>
</svg>
