<svg width="20" height="20" viewBox="0 0 20 20" fill="none" xmlns="http://www.w3.org/2000/svg">
<path fill-rule="evenodd" clip-rule="evenodd" d="M15.5018 6.36238C15.7939 6.08525 15.8062 5.62373 15.529 5.33154C15.2519 5.03935 14.7904 5.02714 14.4982 5.30427L9.94789 9.62002L5.39759 5.30427C5.10541 5.02714 4.64388 5.03935 4.36676 5.33154C4.08963 5.62373 4.10184 6.08525 4.39403 6.36238L9.44611 11.154C9.72743 11.4209 10.1684 11.4209 10.4497 11.154L15.5018 6.36238ZM4.06248 14.1667C3.65977 14.1667 3.33331 14.4931 3.33331 14.8958C3.33331 15.2985 3.65977 15.625 4.06248 15.625H15.9375C16.3402 15.625 16.6666 15.2985 16.6666 14.8958C16.6666 14.4931 16.3402 14.1667 15.9375 14.1667H4.06248Z" fill="#42A1FE"/>
</svg>
