<svg width="50" height="100" viewBox="0 0 50 100" fill="none" xmlns="http://www.w3.org/2000/svg">
<g clip-path="url(#clip0_119_1082)">
<path d="M6.91669 32.1385C7.36366 32.2924 7.80305 32.4539 8.23487 32.6462L12.1288 22.2616C11.697 22.0847 11.2576 21.9154 10.8106 21.7539L6.91669 32.1462V32.1385Z" fill="white"/>
<path d="M0.20459 62.2307V67.9538C0.439438 67.9615 0.674287 67.9692 0.909136 67.9692C1.14398 67.9692 1.37883 67.9615 1.61368 67.9538V62.2307C1.37883 62.2461 1.14398 62.2692 0.909136 62.2692C0.674287 62.2692 0.439438 62.2461 0.20459 62.2307Z" fill="white"/>
<path d="M8.72724 66.0999L6.43937 60.9153C6.0227 61.1307 5.59088 61.3153 5.15149 61.4845L7.44694 66.6845C7.88634 66.5076 8.31058 66.3153 8.72724 66.0999Z" fill="white"/>
<path d="M6.49243 33.2693L4.74243 37.9385C5.1894 38.0847 5.62879 38.2693 6.05303 38.4693L7.81061 33.777C7.37879 33.5924 6.9394 33.4231 6.49243 33.2693Z" fill="white"/>
<path d="M1.61368 20.0386C1.37883 20.0386 1.14398 20.0232 0.909136 20.0232C0.674287 20.0232 0.439438 20.0386 0.20459 20.0386V31.1463C0.439438 31.1386 0.674287 31.1309 0.909136 31.1309C1.14398 31.1309 1.37883 31.1386 1.61368 31.1463V20.0386Z" fill="white"/>
<path d="M1.61368 32.3616C1.37883 32.3539 1.14398 32.3462 0.909136 32.3462C0.674287 32.3462 0.439438 32.3539 0.20459 32.3616V37.3462C0.439438 37.3308 0.674287 37.3077 0.909136 37.3077C1.14398 37.3077 1.37883 37.3308 1.61368 37.3462V32.3616Z" fill="white"/>
<path d="M14.644 63.0923C14.3258 63.4384 13.9925 63.7769 13.6516 64.1L21.3864 71.9538C21.7273 71.6231 22.0606 71.2846 22.3788 70.9461L14.644 63.0923Z" fill="white"/>
<path d="M19.6439 50.1539C19.6439 50.3923 19.6364 50.6308 19.6288 50.8692H30.5758C30.5758 50.6308 30.5909 50.3923 30.5909 50.1539C30.5909 49.9154 30.5758 49.6769 30.5758 49.4385H19.6288C19.6364 49.6769 19.6439 49.9154 19.6439 50.1539Z" fill="white"/>
<path d="M29.3182 38.0078L37.0682 34.477C37.4242 34.3155 37.5833 33.8924 37.4242 33.5309C37.2652 33.1693 36.8485 33.0078 36.4924 33.1693L28.7424 36.7001C28.947 37.1309 29.1364 37.5617 29.3182 38.0001V38.0078Z" fill="white"/>
<path d="M12.803 63.2461C13.1515 62.923 13.4773 62.5845 13.7954 62.2384L9.89393 58.2769C9.57575 58.623 9.24242 58.9615 8.87878 59.2692L12.7954 63.2461H12.803Z" fill="white"/>
<path d="M14.644 37.2231L22.3788 29.3693C22.0531 29.0231 21.7197 28.6846 21.3864 28.3616L13.6516 36.2154C13.9925 36.5385 14.3258 36.877 14.644 37.2231Z" fill="white"/>
<path d="M18.4545 50.1539C18.4545 49.9154 18.4469 49.6769 18.4394 49.4385H13.1894C13.1894 49.5539 13.2045 49.6692 13.2045 49.7846C13.2045 50.1539 13.1818 50.5077 13.1515 50.8692H18.4394C18.4469 50.6308 18.4545 50.3923 18.4545 50.1539Z" fill="white"/>
<path d="M17.5379 55.8231L12.5076 53.877C12.3561 54.3308 12.1743 54.7693 11.9697 55.2L17.0455 57.1616C17.2273 56.7231 17.394 56.277 17.5455 55.8231H17.5379Z" fill="white"/>
<path d="M11.9545 44.3462C12.1591 44.777 12.3409 45.2155 12.5 45.6693L17.197 43.5308C17.0227 43.0847 16.8333 42.6539 16.6212 42.2231L11.9621 44.3462H11.9545Z" fill="white"/>
<path d="M13.803 38.0768C13.4848 37.7229 13.1515 37.3922 12.8106 37.0691L9.27271 40.6614C9.61361 40.9845 9.94695 41.3229 10.25 41.6922L13.803 38.0845V38.0768Z" fill="white"/>
<path d="M23.1894 28.5462L35.8409 15.7C36.1136 15.4231 36.1136 14.9692 35.8409 14.6923C35.5682 14.4154 35.1212 14.4154 34.8485 14.6923L22.197 27.5385C22.5379 27.8692 22.8712 28.2077 23.1894 28.5462Z" fill="white"/>
<path d="M37.8939 63.6923L29.9545 60.623C29.7954 61.0769 29.6288 61.5154 29.4545 61.9615L37.4015 65.0307C37.4848 65.0615 37.5682 65.0769 37.6515 65.0769C37.9318 65.0769 38.2045 64.9 38.3106 64.6154C38.447 64.2461 38.2651 63.8307 37.9015 63.6923H37.8939Z" fill="white"/>
<path d="M49.606 49.4385H31.7121C31.7121 49.6769 31.7272 49.9154 31.7272 50.1539C31.7272 50.3923 31.7121 50.6308 31.7121 50.8692H49.606C49.9924 50.8692 50.3106 50.5462 50.3106 50.1539C50.3106 49.7616 49.9924 49.4385 49.606 49.4385Z" fill="white"/>
<path d="M23.1894 71.7615C22.8636 72.1076 22.5303 72.4461 22.197 72.7692L34.8485 85.6153C34.9848 85.7538 35.1667 85.823 35.3485 85.823C35.5303 85.823 35.7121 85.7538 35.8485 85.6153C36.1212 85.3384 36.1212 84.8845 35.8485 84.6076L23.197 71.7615H23.1894Z" fill="white"/>
<path d="M14.1591 78.4077C13.7348 78.6154 13.3106 78.8077 12.8788 78.9923L16.3561 86.8616C16.4697 87.1231 16.7273 87.2846 17 87.2846C17.0985 87.2846 17.197 87.2616 17.2879 87.2231C17.6439 87.0616 17.803 86.6385 17.6439 86.2769L14.1667 78.4077H14.1591Z" fill="white"/>
<path d="M0.909136 81.446C0.674287 81.446 0.439438 81.4307 0.20459 81.4307V99.5999C0.20459 99.9922 0.522772 100.315 0.909136 100.315C1.2955 100.315 1.61368 99.9922 1.61368 99.5999V81.4307C1.37883 81.4307 1.14398 81.446 0.909136 81.446Z" fill="white"/>
<path d="M1.61368 80.2693V69.1616C1.37883 69.1693 1.14398 69.177 0.909136 69.177C0.674287 69.177 0.439438 69.1693 0.20459 69.1616V80.2693C0.439438 80.2693 0.674287 80.2847 0.909136 80.2847C1.14398 80.2847 1.37883 80.2693 1.61368 80.2693Z" fill="white"/>
<path d="M12.5303 21.177L15.553 13.1077C15.6894 12.7385 15.5075 12.3231 15.1439 12.1846C14.7803 12.0462 14.3712 12.2308 14.2348 12.6L11.2121 20.6616C11.6591 20.8231 12.0909 20.9923 12.5303 21.1693V21.177Z" fill="white"/>
<path d="M9.21213 67.2078C8.79546 67.4155 8.36364 67.6155 7.93182 67.7924L12.4167 77.9385C12.8485 77.7539 13.2803 77.5539 13.697 77.3539L9.21213 67.2078Z" fill="white"/>
<path d="M0.909136 18.8692C1.14398 18.8692 1.37883 18.8846 1.61368 18.8846V0.715385C1.61368 0.323077 1.2955 0 0.909136 0C0.522772 0 0.20459 0.323077 0.20459 0.715385V18.8846C0.439438 18.8846 0.674287 18.8692 0.909136 18.8692Z" fill="white"/>
<path d="M17.7045 41.7232C17.9091 42.1462 18.106 42.5847 18.2803 43.0308L28.2727 38.477C28.0909 38.0385 27.8939 37.6001 27.697 37.177L17.7045 41.7308V41.7232Z" fill="white"/>
<path d="M18.6591 56.2537C18.5075 56.7075 18.3485 57.1537 18.1591 57.5921L28.3863 61.546C28.5606 61.1075 28.7272 60.6614 28.8863 60.2075L18.6515 56.2537H18.6591Z" fill="white"/>
</g>
<defs>
<clipPath id="clip0_119_1082">
<rect width="50" height="100" fill="white"/>
</clipPath>
</defs>
</svg>
