<svg width="83" height="83" viewBox="0 0 83 83" fill="none" xmlns="http://www.w3.org/2000/svg">
<g clip-path="url(#clip0_152_634)">
<path d="M71.5183 52.5415C70.7763 52.793 70.0469 53.0571 69.3301 53.3715L62.8662 36.3942C63.583 36.105 64.3124 35.8283 65.0544 35.5642L71.5183 52.5541V52.5415Z" fill="white"/>
<path d="M72.2226 54.3901L75.1276 62.0236C74.3856 62.2626 73.6562 62.5644 72.952 62.8913L70.0344 55.2201C70.7512 54.9183 71.4806 54.6417 72.2226 54.3901Z" fill="white"/>
<path d="M80.3213 32.7598C80.7112 32.7598 81.101 32.7346 81.4909 32.7346C81.8807 32.7346 82.2706 32.7598 82.6604 32.7598V50.9192C82.2706 50.9066 81.8807 50.894 81.4909 50.894C81.101 50.894 80.7112 50.9066 80.3213 50.9192V32.7598Z" fill="white"/>
<path d="M80.3213 52.9063C80.7112 52.8937 81.101 52.8811 81.4909 52.8811C81.8807 52.8811 82.2706 52.8937 82.6604 52.9063V61.0553C82.2706 61.0302 81.8807 60.9925 81.4909 60.9925C81.101 60.9925 80.7112 61.0302 80.3213 61.0553V52.9063Z" fill="white"/>
<path d="M50.3911 81.994C50.3911 82.3839 50.4036 82.7737 50.4162 83.1636H32.2442C32.2442 82.7737 32.2191 82.3839 32.2191 81.994C32.2191 81.6042 32.2442 81.2143 32.2442 80.8245H50.4162C50.4036 81.2143 50.3911 81.6042 50.3911 81.994Z" fill="white"/>
<path d="M34.3318 62.1368L21.4668 56.3646C20.8758 56.1005 20.6117 55.4088 20.8758 54.8178C21.1399 54.2267 21.8315 53.9626 22.4226 54.2267L35.2876 59.999C34.9481 60.7032 34.6337 61.4075 34.3318 62.1243V62.1368Z" fill="white"/>
<path d="M58.691 60.854L45.8512 48.0141C46.3919 47.4482 46.9452 46.8949 47.4986 46.3667L60.3384 59.2065C59.7725 59.7347 59.2192 60.2881 58.691 60.854Z" fill="white"/>
<path d="M52.3655 81.994C52.3655 81.6042 52.3781 81.2143 52.3906 80.8245H61.1056C61.1056 81.0131 61.0805 81.2017 61.0805 81.3904C61.0805 81.994 61.1182 82.5725 61.1685 83.1636H52.3906C52.3781 82.7737 52.3655 82.3839 52.3655 81.994Z" fill="white"/>
<path d="M63.1554 72.4992C62.8159 73.2035 62.514 73.9203 62.2499 74.6623L54.453 71.1662C54.7422 70.4368 55.0566 69.7326 55.4087 69.0283L63.1428 72.4992H63.1554Z" fill="white"/>
<path d="M60.087 62.25C60.6152 61.6715 61.1685 61.1307 61.7344 60.6025L67.6073 66.4754C67.0414 67.0036 66.4881 67.5569 65.985 68.1606L60.087 62.2625V62.25Z" fill="white"/>
<path d="M44.5057 46.6687L23.5041 25.6671C23.0514 25.2144 23.0514 24.4724 23.5041 24.0197C23.9569 23.567 24.6988 23.567 25.1516 24.0197L46.1531 45.0212C45.5872 45.562 45.0338 46.1153 44.5057 46.6687Z" fill="white"/>
<path d="M0.653971 80.8245H30.3579C30.3579 81.2143 30.3328 81.6042 30.3328 81.994C30.3328 82.3839 30.3579 82.7737 30.3579 83.1636H0.653971C0.0126077 83.1636 -0.515584 82.6354 -0.515584 81.994C-0.515584 81.3526 0.0126077 80.8245 0.653971 80.8245Z" fill="white"/>
<path d="M62.1997 34.6212L57.182 21.4292C56.9556 20.8256 57.2574 20.1465 57.8611 19.9201C58.4647 19.6938 59.1438 19.9956 59.3702 20.5992L64.3879 33.7786C63.6459 34.0427 62.9291 34.3194 62.1997 34.6086V34.6212Z" fill="white"/>
<path d="M81.4909 30.8483C81.101 30.8483 80.7112 30.8735 80.3213 30.8735V1.16955C80.3213 0.528182 80.8495 0 81.4909 0C82.1322 0 82.6604 0.528182 82.6604 1.16955V30.8735C82.2706 30.8735 81.8807 30.8483 81.4909 30.8483Z" fill="white"/>
<path d="M53.6105 68.2108C53.2709 68.9025 52.944 69.6193 52.6547 70.3487L36.0673 62.9039C36.3691 62.187 36.6961 61.4702 37.0231 60.7786L53.6105 68.2234V68.2108Z" fill="white"/>
</g>
<defs>
<clipPath id="clip0_152_634">
<rect width="83" height="83" fill="white" transform="matrix(-1 0 0 1 83 0)"/>
</clipPath>
</defs>
</svg>
