<svg width="50" height="100" viewBox="0 0 50 100" fill="none" xmlns="http://www.w3.org/2000/svg">
<g clip-path="url(#clip0_119_1026)">
<path d="M43.0833 32.1385C42.6363 32.2924 42.1969 32.4539 41.7651 32.6462L37.8712 22.2616C38.303 22.0847 38.7424 21.9154 39.1894 21.7539L43.0833 32.1462V32.1385Z" fill="white"/>
<path d="M49.7954 62.2307V67.9538C49.5606 67.9615 49.3257 67.9692 49.0909 67.9692C48.856 67.9692 48.6212 67.9615 48.3863 67.9538V62.2307C48.6212 62.2461 48.856 62.2692 49.0909 62.2692C49.3257 62.2692 49.5606 62.2461 49.7954 62.2307Z" fill="white"/>
<path d="M41.2728 66.0999L43.5606 60.9153C43.9773 61.1307 44.4091 61.3153 44.8485 61.4845L42.5531 66.6845C42.1137 66.5076 41.6894 66.3153 41.2728 66.0999Z" fill="white"/>
<path d="M43.5076 33.2693L45.2576 37.9385C44.8106 38.0847 44.3712 38.2693 43.947 38.4693L42.1894 33.777C42.6212 33.5924 43.0606 33.4231 43.5076 33.2693Z" fill="white"/>
<path d="M48.3863 20.0386C48.6212 20.0386 48.856 20.0232 49.0909 20.0232C49.3257 20.0232 49.5606 20.0386 49.7954 20.0386V31.1463C49.5606 31.1386 49.3257 31.1309 49.0909 31.1309C48.856 31.1309 48.6212 31.1386 48.3863 31.1463V20.0386Z" fill="white"/>
<path d="M48.3863 32.3616C48.6212 32.3539 48.856 32.3462 49.0909 32.3462C49.3257 32.3462 49.5606 32.3539 49.7954 32.3616V37.3462C49.5606 37.3308 49.3257 37.3077 49.0909 37.3077C48.856 37.3077 48.6212 37.3308 48.3863 37.3462V32.3616Z" fill="white"/>
<path d="M35.356 63.0923C35.6742 63.4384 36.0075 63.7769 36.3484 64.1L28.6136 71.9538C28.2727 71.6231 27.9394 71.2846 27.6212 70.9461L35.356 63.0923Z" fill="white"/>
<path d="M30.3561 50.1539C30.3561 50.3923 30.3636 50.6308 30.3712 50.8692H19.4242C19.4242 50.6308 19.4091 50.3923 19.4091 50.1539C19.4091 49.9154 19.4242 49.6769 19.4242 49.4385H30.3712C30.3636 49.6769 30.3561 49.9154 30.3561 50.1539Z" fill="white"/>
<path d="M20.6818 38.0078L12.9318 34.477C12.5758 34.3155 12.4167 33.8924 12.5758 33.5309C12.7348 33.1693 13.1515 33.0078 13.5076 33.1693L21.2576 36.7001C21.053 37.1309 20.8636 37.5617 20.6818 38.0001V38.0078Z" fill="white"/>
<path d="M37.197 63.2461C36.8485 62.923 36.5227 62.5845 36.2046 62.2384L40.1061 58.2769C40.4242 58.623 40.7576 58.9615 41.1212 59.2692L37.2046 63.2461H37.197Z" fill="white"/>
<path d="M35.356 37.2231L27.6212 29.3693C27.9469 29.0231 28.2803 28.6846 28.6136 28.3616L36.3484 36.2154C36.0075 36.5385 35.6742 36.877 35.356 37.2231Z" fill="white"/>
<path d="M31.5455 50.1539C31.5455 49.9154 31.5531 49.6769 31.5606 49.4385H36.8106C36.8106 49.5539 36.7955 49.6692 36.7955 49.7846C36.7955 50.1539 36.8182 50.5077 36.8485 50.8692H31.5606C31.5531 50.6308 31.5455 50.3923 31.5455 50.1539Z" fill="white"/>
<path d="M32.4621 55.8231L37.4924 53.877C37.6439 54.3308 37.8257 54.7693 38.0303 55.2L32.9545 57.1616C32.7727 56.7231 32.606 56.277 32.4545 55.8231H32.4621Z" fill="white"/>
<path d="M38.0455 44.3462C37.8409 44.777 37.6591 45.2155 37.5 45.6693L32.803 43.5308C32.9773 43.0847 33.1667 42.6539 33.3788 42.2231L38.0379 44.3462H38.0455Z" fill="white"/>
<path d="M36.197 38.0768C36.5152 37.7229 36.8485 37.3922 37.1894 37.0691L40.7273 40.6614C40.3864 40.9845 40.0531 41.3229 39.75 41.6922L36.197 38.0845V38.0768Z" fill="white"/>
<path d="M26.8106 28.5462L14.1591 15.7C13.8864 15.4231 13.8864 14.9692 14.1591 14.6923C14.4318 14.4154 14.8788 14.4154 15.1515 14.6923L27.803 27.5385C27.4621 27.8692 27.1288 28.2077 26.8106 28.5462Z" fill="white"/>
<path d="M12.1061 63.6923L20.0455 60.623C20.2046 61.0769 20.3712 61.5154 20.5455 61.9615L12.5985 65.0307C12.5152 65.0615 12.4318 65.0769 12.3485 65.0769C12.0682 65.0769 11.7955 64.9 11.6894 64.6154C11.553 64.2461 11.7349 63.8307 12.0985 63.6923H12.1061Z" fill="white"/>
<path d="M0.393964 49.4385H18.2879C18.2879 49.6769 18.2728 49.9154 18.2728 50.1539C18.2728 50.3923 18.2879 50.6308 18.2879 50.8692H0.393964C0.00760081 50.8692 -0.310587 50.5462 -0.310587 50.1539C-0.310587 49.7616 0.00760081 49.4385 0.393964 49.4385Z" fill="white"/>
<path d="M26.8106 71.7615C27.1364 72.1076 27.4697 72.4461 27.803 72.7692L15.1515 85.6153C15.0152 85.7538 14.8333 85.823 14.6515 85.823C14.4697 85.823 14.2879 85.7538 14.1515 85.6153C13.8788 85.3384 13.8788 84.8845 14.1515 84.6076L26.803 71.7615H26.8106Z" fill="white"/>
<path d="M35.8409 78.4077C36.2652 78.6154 36.6894 78.8077 37.1212 78.9923L33.6439 86.8616C33.5303 87.1231 33.2727 87.2846 33 87.2846C32.9015 87.2846 32.803 87.2616 32.7121 87.2231C32.3561 87.0616 32.197 86.6385 32.3561 86.2769L35.8333 78.4077H35.8409Z" fill="white"/>
<path d="M49.0909 81.446C49.3257 81.446 49.5606 81.4307 49.7954 81.4307V99.5999C49.7954 99.9922 49.4772 100.315 49.0909 100.315C48.7045 100.315 48.3863 99.9922 48.3863 99.5999V81.4307C48.6212 81.4307 48.856 81.446 49.0909 81.446Z" fill="white"/>
<path d="M48.3863 80.2693V69.1616C48.6212 69.1693 48.856 69.177 49.0909 69.177C49.3257 69.177 49.5606 69.1693 49.7954 69.1616V80.2693C49.5606 80.2693 49.3257 80.2847 49.0909 80.2847C48.856 80.2847 48.6212 80.2693 48.3863 80.2693Z" fill="white"/>
<path d="M37.4697 21.177L34.447 13.1077C34.3106 12.7385 34.4925 12.3231 34.8561 12.1846C35.2197 12.0462 35.6288 12.2308 35.7652 12.6L38.7879 20.6616C38.3409 20.8231 37.9091 20.9923 37.4697 21.1693V21.177Z" fill="white"/>
<path d="M40.7879 67.2078C41.2045 67.4155 41.6364 67.6155 42.0682 67.7924L37.5833 77.9385C37.1515 77.7539 36.7197 77.5539 36.303 77.3539L40.7879 67.2078Z" fill="white"/>
<path d="M49.0909 18.8692C48.856 18.8692 48.6212 18.8846 48.3863 18.8846V0.715385C48.3863 0.323077 48.7045 0 49.0909 0C49.4772 0 49.7954 0.323077 49.7954 0.715385V18.8846C49.5606 18.8846 49.3257 18.8692 49.0909 18.8692Z" fill="white"/>
<path d="M32.2955 41.7232C32.0909 42.1462 31.894 42.5847 31.7197 43.0308L21.7273 38.477C21.9091 38.0385 22.1061 37.6001 22.303 37.177L32.2955 41.7308V41.7232Z" fill="white"/>
<path d="M31.3409 56.2537C31.4925 56.7075 31.6515 57.1537 31.8409 57.5921L21.6137 61.546C21.4394 61.1075 21.2728 60.6614 21.1137 60.2075L31.3485 56.2537H31.3409Z" fill="white"/>
</g>
<defs>
<clipPath id="clip0_119_1026">
<rect width="50" height="100" fill="white" transform="matrix(-1 0 0 1 50 0)"/>
</clipPath>
</defs>
</svg>
