<svg width="83" height="83" viewBox="0 0 83 83" fill="none" xmlns="http://www.w3.org/2000/svg">
<g clip-path="url(#clip0_152_586)">
<path d="M71.5183 30.4585C70.7763 30.207 70.0469 29.9429 69.3301 29.6285L62.8662 46.6058C63.583 46.895 64.3124 47.1717 65.0544 47.4358L71.5183 30.4459V30.4585Z" fill="white"/>
<path d="M72.2226 28.6099L75.1276 20.9764C74.3856 20.7374 73.6562 20.4356 72.952 20.1087L70.0344 27.7799C70.7512 28.0817 71.4806 28.3583 72.2226 28.6099Z" fill="white"/>
<path d="M80.3213 50.2402C80.7112 50.2402 81.101 50.2654 81.4909 50.2654C81.8807 50.2654 82.2706 50.2402 82.6604 50.2402V32.0808C82.2706 32.0934 81.8807 32.106 81.4909 32.106C81.101 32.106 80.7112 32.0934 80.3213 32.0808V50.2402Z" fill="white"/>
<path d="M80.3213 30.0937C80.7112 30.1063 81.101 30.1189 81.4909 30.1189C81.8807 30.1189 82.2706 30.1063 82.6604 30.0937V21.9447C82.2706 21.9698 81.8807 22.0075 81.4909 22.0075C81.101 22.0075 80.7112 21.9698 80.3213 21.9447V30.0937Z" fill="white"/>
<path d="M50.3911 1.00599C50.3911 0.61614 50.4036 0.22629 50.4162 -0.163559H32.2442C32.2442 0.22629 32.2191 0.61614 32.2191 1.00599C32.2191 1.39584 32.2442 1.78569 32.2442 2.17554H50.4162C50.4036 1.78569 50.3911 1.39584 50.3911 1.00599Z" fill="white"/>
<path d="M34.3318 20.8632L21.4668 26.6354C20.8758 26.8995 20.6117 27.5912 20.8758 28.1822C21.1399 28.7733 21.8315 29.0374 22.4226 28.7733L35.2876 23.001C34.9481 22.2968 34.6337 21.5925 34.3318 20.8757V20.8632Z" fill="white"/>
<path d="M58.691 22.146L45.8512 34.9859C46.3919 35.5518 46.9452 36.1051 47.4986 36.6333L60.3384 23.7935C59.7725 23.2653 59.2192 22.7119 58.691 22.146Z" fill="white"/>
<path d="M52.3655 1.00599C52.3655 1.39584 52.3781 1.78569 52.3906 2.17554H61.1056C61.1056 1.9869 61.0805 1.79826 61.0805 1.60962C61.0805 1.00598 61.1182 0.427503 61.1685 -0.163559H52.3906C52.3781 0.22629 52.3655 0.61614 52.3655 1.00599Z" fill="white"/>
<path d="M63.1554 10.5008C62.8159 9.79652 62.514 9.07971 62.2499 8.33774L54.453 11.8338C54.7422 12.5632 55.0566 13.2674 55.4087 13.9717L63.1428 10.5008H63.1554Z" fill="white"/>
<path d="M60.087 20.75C60.6152 21.3285 61.1685 21.8693 61.7344 22.3975L67.6073 16.5246C67.0414 15.9964 66.4881 15.4431 65.985 14.8394L60.087 20.7375V20.75Z" fill="white"/>
<path d="M44.5057 36.3313L23.5041 57.3329C23.0514 57.7856 23.0514 58.5276 23.5041 58.9803C23.9569 59.433 24.6988 59.433 25.1516 58.9803L46.1531 37.9788C45.5872 37.438 45.0338 36.8847 44.5057 36.3313Z" fill="white"/>
<path d="M0.653971 2.17554H30.3579C30.3579 1.78569 30.3328 1.39584 30.3328 1.00599C30.3328 0.61614 30.3579 0.22629 30.3579 -0.163559H0.653971C0.0126077 -0.163559 -0.515584 0.364624 -0.515584 1.00599C-0.515584 1.64735 0.0126077 2.17554 0.653971 2.17554Z" fill="white"/>
<path d="M62.1997 48.3788L57.182 61.5708C56.9556 62.1744 57.2574 62.8535 57.8611 63.0799C58.4647 63.3062 59.1438 63.0044 59.3702 62.4008L64.3879 49.2214C63.6459 48.9573 62.9291 48.6806 62.1997 48.3914V48.3788Z" fill="white"/>
<path d="M81.4909 52.1517C81.101 52.1517 80.7112 52.1265 80.3213 52.1265V81.8305C80.3213 82.4718 80.8495 83 81.4909 83C82.1322 83 82.6604 82.4718 82.6604 81.8305V52.1265C82.2706 52.1265 81.8807 52.1517 81.4909 52.1517Z" fill="white"/>
<path d="M53.6105 14.7892C53.2709 14.0975 52.944 13.3807 52.6547 12.6513L36.0673 20.0961C36.3691 20.813 36.6961 21.5298 37.0231 22.2214L53.6105 14.7766V14.7892Z" fill="white"/>
</g>
<defs>
<clipPath id="clip0_152_586">
<rect width="83" height="83" fill="white" transform="matrix(-1 0 0 -1 83 83)"/>
</clipPath>
</defs>
</svg>
