<svg width="83" height="83" viewBox="0 0 83 83" fill="none" xmlns="http://www.w3.org/2000/svg">
<g clip-path="url(#clip0_152_602)">
<path d="M11.4817 52.5415C12.2237 52.793 12.9531 53.0571 13.6699 53.3715L20.1338 36.3942C19.417 36.105 18.6876 35.8283 17.9456 35.5642L11.4817 52.5541V52.5415Z" fill="white"/>
<path d="M10.7774 54.3901L7.87244 62.0236C8.61441 62.2626 9.34379 62.5644 10.048 62.8913L12.9656 55.2201C12.2488 54.9183 11.5194 54.6417 10.7774 54.3901Z" fill="white"/>
<path d="M2.67869 32.7598C2.28884 32.7598 1.89899 32.7346 1.50915 32.7346C1.1193 32.7346 0.729448 32.7598 0.3396 32.7598V50.9192C0.729448 50.9066 1.1193 50.894 1.50915 50.894C1.89899 50.894 2.28884 50.9066 2.67869 50.9192V32.7598Z" fill="white"/>
<path d="M2.67869 52.9063C2.28884 52.8937 1.89899 52.8811 1.50915 52.8811C1.1193 52.8811 0.729448 52.8937 0.3396 52.9063V61.0553C0.729448 61.0302 1.1193 60.9925 1.50915 60.9925C1.89899 60.9925 2.28884 61.0302 2.67869 61.0553V52.9063Z" fill="white"/>
<path d="M32.6089 81.994C32.6089 82.3839 32.5964 82.7737 32.5838 83.1636H50.7558C50.7558 82.7737 50.7809 82.3839 50.7809 81.994C50.7809 81.6042 50.7558 81.2143 50.7558 80.8245H32.5838C32.5964 81.2143 32.6089 81.6042 32.6089 81.994Z" fill="white"/>
<path d="M48.6682 62.1368L61.5332 56.3646C62.1242 56.1005 62.3883 55.4088 62.1242 54.8178C61.8601 54.2267 61.1685 53.9626 60.5774 54.2267L47.7124 59.999C48.0519 60.7032 48.3663 61.4075 48.6682 62.1243V62.1368Z" fill="white"/>
<path d="M24.309 60.854L37.1488 48.0141C36.6081 47.4482 36.0548 46.8949 35.5014 46.3667L22.6616 59.2065C23.2275 59.7347 23.7808 60.2881 24.309 60.854Z" fill="white"/>
<path d="M30.6345 81.994C30.6345 81.6042 30.6219 81.2143 30.6094 80.8245H21.8944C21.8944 81.0131 21.9195 81.2017 21.9195 81.3904C21.9195 81.994 21.8818 82.5725 21.8315 83.1636H30.6094C30.6219 82.7737 30.6345 82.3839 30.6345 81.994Z" fill="white"/>
<path d="M19.8446 72.4992C20.1841 73.2035 20.486 73.9203 20.7501 74.6623L28.547 71.1662C28.2578 70.4368 27.9434 69.7326 27.5913 69.0283L19.8572 72.4992H19.8446Z" fill="white"/>
<path d="M22.913 62.25C22.3848 61.6715 21.8315 61.1307 21.2656 60.6025L15.3927 66.4754C15.9586 67.0036 16.5119 67.5569 17.015 68.1606L22.913 62.2625V62.25Z" fill="white"/>
<path d="M38.4943 46.6687L59.4959 25.6671C59.9486 25.2144 59.9486 24.4724 59.4959 24.0197C59.0431 23.567 58.3012 23.567 57.8484 24.0197L36.8469 45.0212C37.4128 45.562 37.9662 46.1153 38.4943 46.6687Z" fill="white"/>
<path d="M82.346 80.8245H52.6421C52.6421 81.2143 52.6672 81.6042 52.6672 81.994C52.6672 82.3839 52.6421 82.7737 52.6421 83.1636H82.346C82.9874 83.1636 83.5156 82.6354 83.5156 81.994C83.5156 81.3526 82.9874 80.8245 82.346 80.8245Z" fill="white"/>
<path d="M20.8003 34.6212L25.818 21.4292C26.0444 20.8256 25.7426 20.1465 25.1389 19.9201C24.5353 19.6938 23.8562 19.9956 23.6298 20.5992L18.6121 33.7786C19.3541 34.0427 20.0709 34.3194 20.8003 34.6086V34.6212Z" fill="white"/>
<path d="M1.50915 30.8483C1.89899 30.8483 2.28884 30.8735 2.67869 30.8735V1.16955C2.67869 0.528182 2.15051 0 1.50915 0C0.867782 0 0.3396 0.528182 0.3396 1.16955V30.8735C0.729448 30.8735 1.1193 30.8483 1.50915 30.8483Z" fill="white"/>
<path d="M29.3895 68.2108C29.7291 68.9025 30.056 69.6193 30.3453 70.3487L46.9327 62.9039C46.6309 62.187 46.3039 61.4702 45.9769 60.7786L29.3895 68.2234V68.2108Z" fill="white"/>
</g>
<defs>
<clipPath id="clip0_152_602">
<rect width="83" height="83" fill="white"/>
</clipPath>
</defs>
</svg>
