<svg width="83" height="83" viewBox="0 0 83 83" fill="none" xmlns="http://www.w3.org/2000/svg">
<g clip-path="url(#clip0_152_570)">
<path d="M11.4817 30.4585C12.2237 30.207 12.9531 29.9429 13.6699 29.6285L20.1338 46.6058C19.417 46.895 18.6876 47.1717 17.9456 47.4358L11.4817 30.4459V30.4585Z" fill="white"/>
<path d="M10.7774 28.6099L7.87244 20.9764C8.61441 20.7374 9.34379 20.4356 10.048 20.1087L12.9656 27.7799C12.2488 28.0817 11.5194 28.3583 10.7774 28.6099Z" fill="white"/>
<path d="M2.67869 50.2402C2.28884 50.2402 1.89899 50.2654 1.50915 50.2654C1.1193 50.2654 0.729448 50.2402 0.3396 50.2402V32.0808C0.729448 32.0934 1.1193 32.106 1.50915 32.106C1.89899 32.106 2.28884 32.0934 2.67869 32.0808V50.2402Z" fill="white"/>
<path d="M2.67869 30.0937C2.28884 30.1063 1.89899 30.1189 1.50915 30.1189C1.1193 30.1189 0.729448 30.1063 0.3396 30.0937V21.9447C0.729448 21.9698 1.1193 22.0075 1.50915 22.0075C1.89899 22.0075 2.28884 21.9698 2.67869 21.9447V30.0937Z" fill="white"/>
<path d="M32.6089 1.00599C32.6089 0.61614 32.5964 0.22629 32.5838 -0.163559H50.7558C50.7558 0.22629 50.7809 0.61614 50.7809 1.00599C50.7809 1.39584 50.7558 1.78569 50.7558 2.17554H32.5838C32.5964 1.78569 32.6089 1.39584 32.6089 1.00599Z" fill="white"/>
<path d="M48.6682 20.8632L61.5332 26.6354C62.1242 26.8995 62.3883 27.5912 62.1242 28.1822C61.8601 28.7733 61.1685 29.0374 60.5774 28.7733L47.7124 23.001C48.0519 22.2968 48.3663 21.5925 48.6682 20.8757V20.8632Z" fill="white"/>
<path d="M24.309 22.146L37.1488 34.9859C36.6081 35.5518 36.0548 36.1051 35.5014 36.6333L22.6616 23.7935C23.2275 23.2653 23.7808 22.7119 24.309 22.146Z" fill="white"/>
<path d="M30.6345 1.00599C30.6345 1.39584 30.6219 1.78569 30.6094 2.17554H21.8944C21.8944 1.9869 21.9195 1.79826 21.9195 1.60962C21.9195 1.00598 21.8818 0.427503 21.8315 -0.163559H30.6094C30.6219 0.22629 30.6345 0.61614 30.6345 1.00599Z" fill="white"/>
<path d="M19.8446 10.5008C20.1841 9.79652 20.486 9.07971 20.7501 8.33774L28.547 11.8338C28.2578 12.5632 27.9434 13.2674 27.5913 13.9717L19.8572 10.5008H19.8446Z" fill="white"/>
<path d="M22.913 20.75C22.3848 21.3285 21.8315 21.8693 21.2656 22.3975L15.3927 16.5246C15.9586 15.9964 16.5119 15.4431 17.015 14.8394L22.913 20.7375V20.75Z" fill="white"/>
<path d="M38.4943 36.3313L59.4959 57.3329C59.9486 57.7856 59.9486 58.5276 59.4959 58.9803C59.0431 59.433 58.3012 59.433 57.8484 58.9803L36.8469 37.9788C37.4128 37.438 37.9662 36.8847 38.4943 36.3313Z" fill="white"/>
<path d="M82.346 2.17554H52.6421C52.6421 1.78569 52.6672 1.39584 52.6672 1.00599C52.6672 0.61614 52.6421 0.22629 52.6421 -0.163559H82.346C82.9874 -0.163559 83.5156 0.364624 83.5156 1.00599C83.5156 1.64735 82.9874 2.17554 82.346 2.17554Z" fill="white"/>
<path d="M20.8003 48.3788L25.818 61.5708C26.0444 62.1744 25.7426 62.8535 25.1389 63.0799C24.5353 63.3062 23.8562 63.0044 23.6298 62.4008L18.6121 49.2214C19.3541 48.9573 20.0709 48.6806 20.8003 48.3914V48.3788Z" fill="white"/>
<path d="M1.50915 52.1517C1.89899 52.1517 2.28884 52.1265 2.67869 52.1265V81.8305C2.67869 82.4718 2.15051 83 1.50915 83C0.867782 83 0.3396 82.4718 0.3396 81.8305V52.1265C0.729448 52.1265 1.1193 52.1517 1.50915 52.1517Z" fill="white"/>
<path d="M29.3895 14.7892C29.7291 14.0975 30.056 13.3807 30.3453 12.6513L46.9327 20.0961C46.6309 20.813 46.3039 21.5298 45.9769 22.2214L29.3895 14.7766V14.7892Z" fill="white"/>
</g>
<defs>
<clipPath id="clip0_152_570">
<rect width="83" height="83" fill="white" transform="matrix(1 0 0 -1 0 83)"/>
</clipPath>
</defs>
</svg>
