<svg width="100" height="50" viewBox="0 0 100 50" fill="none" xmlns="http://www.w3.org/2000/svg">
<g clip-path="url(#clip0_151_542)">
<path d="M67.8615 43.0833C67.7077 42.6363 67.5461 42.1969 67.3538 41.7651L77.7384 37.8711C77.9154 38.3029 78.0846 38.7423 78.2461 39.1893L67.8538 43.0833L67.8615 43.0833Z" fill="#B5D2F5"/>
<path d="M37.7692 49.7954L32.0462 49.7954C32.0385 49.5606 32.0308 49.3257 32.0308 49.0909C32.0308 48.856 32.0385 48.6212 32.0462 48.3863L37.7692 48.3863C37.7538 48.6212 37.7308 48.856 37.7308 49.0909C37.7308 49.3257 37.7538 49.5606 37.7692 49.7954Z" fill="#B5D2F5"/>
<path d="M33.9 41.2726L39.0847 43.5605C38.8693 43.9772 38.6847 44.409 38.5154 44.8484L33.3154 42.5529C33.4923 42.1135 33.6847 41.6893 33.9 41.2726Z" fill="#B5D2F5"/>
<path d="M66.7308 43.5076L62.0615 45.2576C61.9154 44.8106 61.7308 44.3712 61.5308 43.947L66.2231 42.1894C66.4077 42.6212 66.5769 43.0606 66.7308 43.5076Z" fill="#B5D2F5"/>
<path d="M79.9615 48.3863C79.9615 48.6212 79.9769 48.856 79.9769 49.0909C79.9769 49.3257 79.9615 49.5606 79.9615 49.7954L68.8538 49.7954C68.8615 49.5606 68.8692 49.3257 68.8692 49.0909C68.8692 48.856 68.8615 48.6212 68.8538 48.3863L79.9615 48.3863Z" fill="#B5D2F5"/>
<path d="M67.6384 48.3863C67.6461 48.6212 67.6538 48.856 67.6538 49.0909C67.6538 49.3257 67.6461 49.5606 67.6384 49.7954L62.6538 49.7954C62.6692 49.5606 62.6923 49.3257 62.6923 49.0909C62.6923 48.856 62.6692 48.6212 62.6538 48.3863L67.6384 48.3863Z" fill="#B5D2F5"/>
<path d="M36.9077 35.356C36.5615 35.6741 36.223 36.0075 35.9 36.3484L28.0461 28.6135C28.3769 28.2726 28.7153 27.9393 29.0538 27.6211L36.9077 35.356Z" fill="#B5D2F5"/>
<path d="M49.8461 30.3559C49.6077 30.3559 49.3692 30.3635 49.1308 30.3711L49.1308 19.4241C49.3692 19.4241 49.6077 19.409 49.8461 19.409C50.0846 19.409 50.3231 19.4241 50.5615 19.4241L50.5615 30.3711C50.3231 30.3635 50.0846 30.3559 49.8461 30.3559Z" fill="#B5D2F5"/>
<path d="M61.9923 20.6818L65.5231 12.9318C65.6846 12.5758 66.1077 12.4167 66.4692 12.5758C66.8308 12.7348 66.9923 13.1515 66.8308 13.5076L63.3 21.2576C62.8692 21.053 62.4385 20.8636 62 20.6818L61.9923 20.6818Z" fill="#B5D2F5"/>
<path d="M36.7539 37.1969C37.0769 36.8484 37.4154 36.5226 37.7615 36.2044L41.7231 40.1059C41.3769 40.4241 41.0385 40.7575 40.7308 41.1211L36.7539 37.2044L36.7539 37.1969Z" fill="#B5D2F5"/>
<path d="M62.7769 35.356L70.6308 27.6211C70.9769 27.9469 71.3154 28.2802 71.6385 28.6135L63.7846 36.3484C63.4616 36.0075 63.1231 35.6741 62.7769 35.356Z" fill="#B5D2F5"/>
<path d="M49.8461 31.5456C50.0846 31.5456 50.3231 31.5532 50.5615 31.5608L50.5615 36.8108C50.4461 36.8108 50.3308 36.7956 50.2154 36.7956C49.8461 36.7956 49.4923 36.8183 49.1308 36.8486L49.1308 31.5608C49.3692 31.5532 49.6077 31.5456 49.8461 31.5456Z" fill="#B5D2F5"/>
<path d="M44.1769 32.4621L46.123 37.4924C45.6692 37.6439 45.2307 37.8257 44.8 38.0303L42.8384 32.9545C43.2769 32.7727 43.723 32.606 44.1769 32.4545L44.1769 32.4621Z" fill="#B5D2F5"/>
<path d="M55.6538 38.0454C55.2231 37.8409 54.7846 37.659 54.3308 37.5L56.4692 32.803C56.9154 32.9772 57.3461 33.1666 57.7769 33.3787L55.6538 38.0378L55.6538 38.0454Z" fill="#B5D2F5"/>
<path d="M61.9231 36.197C62.2769 36.5152 62.6077 36.8485 62.9308 37.1894L59.3385 40.7273C59.0154 40.3864 58.6769 40.0531 58.3077 39.75L61.9154 36.197L61.9231 36.197Z" fill="#B5D2F5"/>
<path d="M71.4539 26.8108L84.3 14.1593C84.577 13.8866 85.0308 13.8866 85.3077 14.1593C85.5846 14.432 85.5846 14.879 85.3077 15.1517L72.4616 27.8032C72.1308 27.4623 71.7923 27.129 71.4539 26.8108Z" fill="#B5D2F5"/>
<path d="M36.3077 12.106L39.3769 20.0454C38.923 20.2045 38.4846 20.3712 38.0384 20.5454L34.9692 12.5984C34.9384 12.5151 34.923 12.4318 34.923 12.3484C34.923 12.0681 35.1 11.7954 35.3846 11.6893C35.7538 11.553 36.1692 11.7348 36.3077 12.0984L36.3077 12.106Z" fill="#B5D2F5"/>
<path d="M50.5615 0.393903L50.5615 18.2878C50.3231 18.2878 50.0846 18.2727 49.8461 18.2727C49.6077 18.2727 49.3692 18.2878 49.1308 18.2878L49.1308 0.393903C49.1308 0.00753975 49.4538 -0.310648 49.8461 -0.310648C50.2384 -0.310648 50.5615 0.00753977 50.5615 0.393903Z" fill="#B5D2F5"/>
<path d="M28.2384 26.8108C27.8922 27.1366 27.5538 27.4699 27.2307 27.8032L14.3846 15.1517C14.2461 15.0153 14.1769 14.8335 14.1769 14.6517C14.1769 14.4699 14.2461 14.2881 14.3846 14.1517C14.6615 13.879 15.1153 13.879 15.3923 14.1517L28.2384 26.8032L28.2384 26.8108Z" fill="#B5D2F5"/>
<path d="M21.5923 35.8408C21.3846 36.265 21.1923 36.6893 21.0077 37.1211L13.1384 33.6438C12.8769 33.5302 12.7154 33.2726 12.7154 32.9999C12.7154 32.9014 12.7384 32.8029 12.7769 32.712C12.9384 32.3559 13.3615 32.1969 13.7231 32.3559L21.5923 35.8332L21.5923 35.8408Z" fill="#B5D2F5"/>
<path d="M18.5539 49.0909C18.5539 49.3257 18.5693 49.5606 18.5693 49.7954L0.400048 49.7954C0.00773987 49.7954 -0.315343 49.4772 -0.315343 49.0909C-0.315343 48.7045 0.00773989 48.3863 0.400048 48.3863L18.5693 48.3863C18.5693 48.6212 18.5539 48.856 18.5539 49.0909Z" fill="#B5D2F5"/>
<path d="M19.7308 48.3863L30.8384 48.3863C30.8307 48.6212 30.8231 48.856 30.8231 49.0909C30.8231 49.3257 30.8307 49.5606 30.8384 49.7954L19.7308 49.7954C19.7308 49.5606 19.7154 49.3257 19.7154 49.0909C19.7154 48.856 19.7308 48.6212 19.7308 48.3863Z" fill="#B5D2F5"/>
<path d="M78.823 37.4697L86.8923 34.4469C87.2615 34.3106 87.6769 34.4924 87.8154 34.856C87.9538 35.2197 87.7692 35.6288 87.4 35.7651L79.3384 38.7878C79.1769 38.3409 79.0077 37.9091 78.8307 37.4697L78.823 37.4697Z" fill="#B5D2F5"/>
<path d="M32.7923 40.7881C32.5846 41.2047 32.3846 41.6365 32.2077 42.0684L22.0615 37.5835C22.2461 37.1517 22.4461 36.7199 22.6461 36.3032L32.7923 40.7881Z" fill="#B5D2F5"/>
<path d="M81.1308 49.0909C81.1308 48.856 81.1154 48.6212 81.1154 48.3863L99.2846 48.3863C99.6769 48.3863 100 48.7045 100 49.0909C100 49.4772 99.6769 49.7954 99.2846 49.7954L81.1154 49.7954C81.1154 49.5606 81.1308 49.3257 81.1308 49.0909Z" fill="#B5D2F5"/>
<path d="M58.277 32.2954C57.8539 32.0909 57.4154 31.8939 56.9693 31.7197L61.5231 21.7272C61.9616 21.909 62.4 22.106 62.8231 22.303L58.2693 32.2954L58.277 32.2954Z" fill="#B5D2F5"/>
<path d="M43.7462 31.3411C43.2923 31.4926 42.8462 31.6517 42.4077 31.8411L38.4538 21.6138C38.8923 21.4396 39.3385 21.2729 39.7923 21.1138L43.7462 31.3486L43.7462 31.3411Z" fill="#B5D2F5"/>
</g>
<defs>
<clipPath id="clip0_151_542">
<rect width="50" height="100" fill="white" transform="matrix(1.19249e-08 -1 -1 -1.19249e-08 100 50)"/>
</clipPath>
</defs>
</svg>
